<svg width="548" height="534" viewBox="0 0 548 534" fill="none" xmlns="http://www.w3.org/2000/svg">
<path d="M450.638 533.667H97.3618C43.8006 533.667 0.495728 490.362 0.495728 436.801V97.1995C0.495728 43.6382 43.8006 0.333374 97.3618 0.333374H450.638C504.199 0.333374 547.504 43.6382 547.504 97.1995V436.801C547.504 490.362 504.199 533.667 450.638 533.667Z" fill="#5D82E8"/>
<path d="M441.977 510.875H106.023C60.4387 510.875 23.2877 473.724 23.2877 428.14V105.86C23.2877 60.2764 60.4387 23.1254 106.023 23.1254H441.749C487.561 23.1254 524.484 60.2764 524.484 105.86V427.912C524.712 473.724 487.561 510.875 441.977 510.875V510.875Z" fill="#5D82E8"/>
<path d="M216.792 249.906L280.61 372.527C281.749 374.35 281.066 376.174 279.242 376.174H239.584C237.077 376.174 235.937 375.49 234.798 373.211C220.211 343.125 205.396 313.04 190.125 280.675H189.67C175.994 311.217 160.952 343.353 146.365 373.439C145.225 375.262 144.085 375.946 142.262 375.946H104.655C102.376 375.946 102.148 374.122 103.288 372.755L165.738 253.781L105.339 133.439C103.972 131.615 105.339 130.248 106.707 130.248H145.909C148.188 130.248 149.1 130.704 150.011 132.755C164.37 162.84 178.957 193.838 192.632 224.151H193.088C206.308 194.066 220.895 162.84 235.026 132.983C236.165 131.16 236.849 130.02 239.128 130.02H275.823C277.647 130.02 278.33 131.387 277.191 133.211L216.792 249.906ZM291.778 287.057C291.778 233.952 327.105 192.47 383.174 192.47C387.96 192.47 390.467 192.47 395.026 192.926V132.527C395.026 131.16 396.165 130.248 397.305 130.248H433.316C435.14 130.248 435.595 130.932 435.595 132.071V341.302C435.595 347.456 435.595 355.205 436.735 363.638C436.735 365.006 436.279 365.462 434.912 366.145C415.766 375.262 395.709 379.365 376.564 379.365C327.105 379.593 291.778 349.051 291.778 287.057V287.057ZM395.026 228.709C391.835 227.342 387.276 226.43 381.806 226.43C353.088 226.43 333.031 248.538 333.031 285.234C333.031 327.171 353.544 344.037 379.299 344.037C384.769 344.037 390.695 343.353 395.026 341.53V228.709Z" fill="white"/>
</svg>
