<svg width="116" height="27" viewBox="0 0 116 27" fill="none" xmlns="http://www.w3.org/2000/svg">
<path d="M49.538 10.516L48.8 13.13L49.538 10.515V10.516ZM53.334 16.194L52.521 16.189L53.334 16.194ZM53.134 20.1L48.262 20.118L53.134 20.1ZM54.154 16.2L53.34 16.195L54.154 16.2ZM53.562 19.77L54.412 16.533L53.562 19.77ZM71.502 4.86999L69.922 12.303L71.502 4.86999ZM67.438 4.85999L66.238 10.413L67.438 4.85999Z" fill="#5D82E8"/>
<path d="M71.22 4.52701H67.84C67.652 4.52701 67.466 4.67701 67.426 4.86101L65.026 15.968C64.986 16.151 64.8 16.301 64.613 16.301H62.22C59.852 16.301 60.126 14.664 60.62 12.421L60.635 12.353L60.922 10.823L61.046 10.193L62.138 4.86101C62.176 4.67701 62.053 4.52601 61.865 4.52601H58.395C58.2993 4.52929 58.2074 4.56368 58.133 4.62395C58.0587 4.68423 58.006 4.7671 57.983 4.86001L56.4 12.274C55.54 16.198 55.768 19.94 60.44 20.057H67.907C68.095 20.057 68.28 19.907 68.32 19.723L71.482 4.85701C71.522 4.67301 71.399 4.52301 71.212 4.52301L71.22 4.52701ZM84.7 16.34C84.888 16.34 85 16.49 84.973 16.674L84.645 18.279L84.7 16.34ZM84.325 19.884L84.653 18.278L84.325 19.884ZM83.925 20.222L77.695 20.252L83.925 20.222Z" fill="#5D82E8"/>
<path d="M75.667 14.273C75.664 14.097 75.864 13.795 76.052 13.795L75.63 13.788C75.43 15.702 75.667 14.273 75.667 14.273V14.273ZM77.992 20.25H77.927H77.992ZM84.7 16.35C84.888 16.35 85 16.5 84.973 16.684L84.6 18.54L84.7 16.35ZM79.592 20.247H79.578H79.592ZM78.762 20.25H78.714H78.762ZM78.51 20.25H78.43H78.51ZM78.252 20.25H78.182H78.252ZM78.714 20.25H78.509H78.714Z" fill="#5D82E8"/>
<path d="M79.58 20.247L78.764 20.25L79.58 20.247ZM83.917 20.22L79.592 20.246L83.917 20.22ZM84.317 19.885L84.592 18.541L84.317 19.886V19.885ZM78.421 20.25H78.243H78.421ZM77.916 20.252H77.676H77.916ZM78.17 20.25H77.97H78.17ZM28.712 14.313L29.237 11.985L28.637 14.645L28.567 14.979L28.713 14.311L28.712 14.313ZM35 4.48802H31.287C31.1911 4.49178 31.0988 4.52612 31.0238 4.58603C30.9488 4.64595 30.8949 4.72829 30.87 4.82102L30.166 7.92102C30.1542 7.96114 30.1522 8.00353 30.1602 8.04458C30.1683 8.08563 30.1861 8.12413 30.2122 8.15682C30.2383 8.18951 30.272 8.21541 30.3102 8.23233C30.3485 8.24925 30.3902 8.25669 30.432 8.25402H34.174C34.362 8.25402 34.548 8.10402 34.588 7.92102L35.268 4.81402C35.308 4.63102 35.188 4.48102 34.998 4.48102L35 4.48802ZM34.2 9.65802L33.1 14.696L34.2 9.65802ZM23.414 26.35L26.476 26.374C25.572 26.374 24.079 26.357 23.413 26.349L23.414 26.35Z" fill="#5D82E8"/>
<path d="M29.773 9.65698L29.247 11.985L29.773 9.65698ZM33.933 9.32298H30.2C30.1041 9.32674 30.0118 9.36108 29.9368 9.42099C29.8618 9.48091 29.8079 9.56325 29.783 9.65598L28.733 14.312L28.587 14.98L27.587 19.733C27.5375 19.9547 27.4774 20.174 27.407 20.39C27.407 20.39 26.707 22.47 25.533 22.447L24.368 22.425C24.2724 22.4277 24.1802 22.4607 24.1047 22.5193C24.0292 22.5779 23.9743 22.6591 23.948 22.751L23.172 26.013C23.1598 26.0529 23.1573 26.0951 23.1648 26.1362C23.1723 26.1772 23.1896 26.2158 23.2152 26.2488C23.2408 26.2817 23.274 26.308 23.3119 26.3255C23.3498 26.3429 23.3913 26.351 23.433 26.349L26.496 26.374C29.432 26.374 30.979 24.747 31.972 20.067L34.222 9.66698C34.262 9.48398 34.14 9.33398 33.952 9.33398L33.933 9.32298ZM87.093 20.06C86.905 20.06 86.793 19.91 86.823 19.726L89.64 6.53998L87.093 20.06ZM91.006 19.726L92.146 14.098L91.006 19.726Z" fill="#5D82E8"/>
<path d="M86.865 19.894C86.842 19.802 86.855 19.577 86.895 19.394L88.231 13.134L86.823 19.727C86.783 19.911 86.905 20.061 87.093 20.061H87.435C87.247 20.061 86.887 19.986 86.865 19.894V19.894ZM90.785 19.986C90.683 20.026 90.445 20.061 90.257 20.061H90.599C90.6944 20.0572 90.7861 20.0225 90.86 19.9621C90.934 19.9016 90.9863 19.8188 91.009 19.726L91.077 19.392C91.04 19.576 90.877 19.945 90.777 19.986H90.785ZM91.577 16.912L92.08 14.428L91.577 16.912ZM102.685 7.42401L102.84 8.06401C102.883 8.24701 102.764 8.39601 102.577 8.39701" fill="#5D82E8"/>
<path d="M91.075 19.392L91.575 16.912L91.075 19.392ZM102.53 6.76698L102.683 7.42298L102.53 6.76698ZM92.08 14.43L92.218 13.766L92.755 11.251L92.147 14.099L92.08 14.429V14.43ZM89.685 6.32397L89.568 6.87398L88.232 13.134L89.64 6.54098L89.685 6.32498V6.32397Z" fill="#5D82E8"/>
<path d="M102.84 8.064L102.685 7.424L102.455 6.424C102.151 5.244 101.259 4.561 99.321 4.561L90.401 4.555C90.3053 4.55828 90.2134 4.59267 90.139 4.65294C90.0647 4.71322 90.012 4.79609 89.989 4.889L89.851 5.542L89.651 6.529L86.907 19.382C86.867 19.566 86.854 19.782 86.877 19.882C86.9 19.982 87.26 20.049 87.447 20.049H90.267C90.455 20.049 90.692 20.015 90.795 19.974C90.898 19.933 91.049 19.574 91.095 19.38L92.165 14.086L93.31 8.722C93.35 8.539 93.535 8.39 93.722 8.389L102.595 8.385C102.782 8.385 102.901 8.235 102.858 8.052L102.84 8.064ZM114.262 2.27L113.579 2.273H110.739C110.635 2.27919 110.534 2.30755 110.441 2.35619C110.349 2.40483 110.269 2.47262 110.205 2.555L103.925 11.755C103.819 11.91 103.698 11.887 103.655 11.705L103.193 9.678C103.168 9.58527 103.114 9.50293 103.039 9.44302C102.964 9.3831 102.872 9.34876 102.776 9.345H98.739C98.551 9.345 98.439 9.492 98.491 9.673L100.291 16.011C100.343 16.191 100.346 16.488 100.301 16.671L99.501 19.738C99.4874 19.7773 99.4838 19.8194 99.4905 19.8605C99.4973 19.9016 99.5142 19.9403 99.5397 19.9732C99.5653 20.0061 99.5986 20.032 99.6367 20.0488C99.6748 20.0655 99.7165 20.0725 99.758 20.069H103.758C103.946 20.069 104.138 19.919 104.184 19.739L104.984 16.672C105.047 16.4561 105.145 16.252 105.274 16.068L115.47 2.536C115.583 2.386 115.522 2.264 115.334 2.266L114.264 2.273L114.262 2.27ZM82.186 10.208C82.162 10.408 81.974 10.558 81.786 10.558H76.666C76.489 10.558 76.399 10.438 76.426 10.288L76.43 10.261L76.453 10.174C76.953 8.874 77.938 8.021 79.809 8.021C81.916 8.021 82.327 9.051 82.184 10.208H82.186ZM80.686 4.3C74.116 4.3 72.559 8.288 71.686 12.313C70.812 16.416 70.888 20.253 77.686 20.253H78.764L79.594 20.25L83.92 20.224C84.0149 20.2196 84.1059 20.1846 84.1792 20.1242C84.2526 20.0638 84.3044 19.9813 84.327 19.889L84.984 16.677C85.022 16.493 84.899 16.343 84.711 16.343H78.6C76.17 16.343 75.447 15.697 75.713 13.798H85.483C85.643 13.795 85.788 13.698 85.845 13.546C85.855 13.519 85.865 13.49 85.869 13.461C87.319 7.991 86.903 4.304 80.689 4.304L80.686 4.3ZM49.63 10.187L49.538 10.514C49.538 10.515 48.8 13.13 48.8 13.13L48.062 15.744C48.0313 15.8362 47.9734 15.9169 47.8959 15.9754C47.8185 16.034 47.725 16.0677 47.628 16.072H43.723C40.761 16.072 40.04 13.755 40.761 10.338C41.481 6.843 42.896 4.67 45.811 4.45C49.795 4.15 50.591 6.952 49.631 10.186L49.63 10.187ZM52.308 15.872C52.308 15.872 54.148 11.402 54.568 8.819C55.138 5.362 53.408 0.348999 46.723 0.348999C40.076 0.348999 37.19 5.135 36.089 10.349C34.989 15.589 36.431 20.185 43.039 20.149L53.125 20.112C53.2217 20.1074 53.3146 20.073 53.391 20.0136C53.4675 19.9542 53.5237 19.8726 53.552 19.78L54.402 16.542C54.4157 16.5028 54.4195 16.4608 54.4129 16.4197C54.4064 16.3787 54.3897 16.3399 54.3643 16.307C54.339 16.274 54.3059 16.2479 54.268 16.231C54.23 16.214 54.1884 16.2068 54.147 16.21H52.52C52.36 16.209 52.27 16.106 52.288 15.97C52.291 15.945 52.298 15.92 52.308 15.894V15.872Z" fill="#5D82E8"/>
<path d="M85.21 12.88C85.21 13.004 85.11 13.104 84.986 13.104C84.862 13.104 84.762 13.004 84.762 12.88C84.762 12.756 84.862 12.656 84.986 12.656C85.11 12.656 85.21 12.756 85.21 12.88Z" fill="#5D82E8"/>
<path d="M1.55701 7.06698C-0.277994 9.70498 -0.0499938 13.137 1.35201 15.939L1.45501 16.139L1.52101 16.265L1.56101 16.338L1.63401 16.468L1.76801 16.698L1.84401 16.824L1.99901 17.067L2.06501 17.169L2.29001 17.494L2.33401 17.554L2.53901 17.827L2.61601 17.925L2.81601 18.158L2.88801 18.245L3.15201 18.547L3.16801 18.564L3.43601 18.847L3.52201 18.934L3.73601 19.134L3.82401 19.217L4.11701 19.484L4.17301 19.531L4.44001 19.756L4.54001 19.844L4.76201 20.018L4.88201 20.118L5.13201 20.298L5.24801 20.38L5.49001 20.54L5.59501 20.61L5.97501 20.842L6.08001 20.902L6.36501 21.062L6.52301 21.142L6.72701 21.248L6.77401 21.271L6.85701 21.311L7.18001 21.461L7.24801 21.491L7.62501 21.647L7.71701 21.683L8.07201 21.815L8.11701 21.831L8.51301 21.961L8.60901 21.989L9.00901 22.105C17.884 23.725 20.462 16.771 20.462 16.771C18.297 19.591 14.462 20.336 10.812 19.508C10.674 19.478 10.54 19.434 10.406 19.394L10.306 19.364C10.1753 19.3238 10.0453 19.2814 9.91601 19.237L9.86201 19.217C9.74601 19.177 9.63201 19.133 9.51701 19.089L9.42001 19.051C9.29474 19.0016 9.17039 18.9499 9.04701 18.896L8.97301 18.863L8.65901 18.717L8.55901 18.673C8.47701 18.633 8.39701 18.591 8.31601 18.549L8.15401 18.464C8.05605 18.4114 7.95903 18.357 7.86301 18.301L7.76501 18.246C7.63719 18.1706 7.5105 18.0932 7.38501 18.014C7.35001 17.992 7.31701 17.968 7.28301 17.946L7.01301 17.766C6.98301 17.746 6.95501 17.726 6.92601 17.706L6.67101 17.521L6.55801 17.436L6.32801 17.256L6.22501 17.174L5.93801 16.932C5.92801 16.922 5.91801 16.915 5.90801 16.906C5.80601 16.806 5.70601 16.724 5.60601 16.632L5.52101 16.55L5.30401 16.338L5.21901 16.253C5.12876 16.1608 5.04008 16.0671 4.95301 15.972C4.85689 15.8669 4.76254 15.7602 4.67001 15.652L4.60001 15.568L4.40601 15.328L4.33601 15.228L4.11201 14.93C2.10001 12.178 1.37301 8.37398 3.00001 5.24998L1.55701 7.06698ZM7.26301 4.84498C5.93601 6.74498 6.00801 9.31198 7.04301 11.331C7.21634 11.6705 7.41246 11.9979 7.63001 12.311C7.83001 12.596 8.05001 12.935 8.31301 13.164L8.61101 13.464L8.68901 13.541L8.99301 13.824L9.00801 13.837L9.36301 14.131L9.44301 14.194L9.81501 14.464L10.075 14.637L10.35 14.807L10.39 14.83L10.634 14.966L10.721 15.011L10.891 15.099L10.917 15.111L11.272 15.277L11.35 15.309L11.65 15.427L11.775 15.473L12.042 15.566L12.162 15.606C12.29 15.646 12.416 15.706 12.549 15.718C19.402 16.853 20.984 11.578 20.984 11.578C19.558 13.632 16.796 14.612 13.849 13.848L13.461 13.736L13.344 13.698L13.074 13.604L12.951 13.558L12.659 13.44L12.579 13.407L12.222 13.241L12.042 13.141L11.939 13.088L11.659 12.928L11.384 12.76L11.124 12.587L10.754 12.317L10.671 12.251C9.37101 11.233 8.35801 9.85098 7.87101 8.26298C7.37101 6.62598 7.47101 4.78898 8.35401 3.29798L7.26301 4.84498ZM12.044 3.18498C11.262 4.33498 11.184 5.76498 11.728 7.03798C12.3 8.38798 13.474 9.43798 14.843 9.93798L15.013 9.99798L15.088 10.022L15.332 10.092C19.116 10.822 20.132 8.14998 20.415 7.75698C19.515 9.05098 18.015 9.36198 16.151 8.91198C15.9993 8.8719 15.8491 8.82587 15.701 8.77398C15.5196 8.70973 15.3417 8.63596 15.168 8.55298C14.8385 8.39444 14.5257 8.2035 14.234 7.98298C12.574 6.72298 11.534 4.32298 12.627 2.36798" fill="#5D82E8"/>
</svg>
